<svg width="89" height="90" viewBox="0 0 89 90" fill="none" xmlns="http://www.w3.org/2000/svg">
<g clip-path="url(#clip0_93_28)">
<path d="M69.125 7.3125H14.875C7.38464 7.3125 1.3125 13.3846 1.3125 20.875V75.125C1.3125 82.6154 7.38464 88.6875 14.875 88.6875H69.125C76.6154 88.6875 82.6875 82.6154 82.6875 75.125V20.875C82.6875 13.3846 76.6154 7.3125 69.125 7.3125Z" fill="#2563EB" stroke="#2563EB" stroke-width="2.625"/>
<path d="M25.6973 28.3746V29.7493H21.4996C20.7404 29.7493 20.125 30.3647 20.125 31.1239V66.8642C20.125 67.6233 20.7404 68.2389 21.4996 68.2389H62.7385C63.4976 68.2389 64.1131 67.6233 64.1131 66.8642V31.1239C64.1131 30.3647 63.4976 29.7493 62.7385 29.7493H58.5409V28.3746C58.5409 27.6154 57.9254 27 57.1663 27H48.8413C46.2501 27 43.8225 28.1132 42.1191 29.9972C40.4155 28.1132 37.9881 27 35.397 27H27.0719C26.3127 27 25.6973 27.6154 25.6973 28.3746ZM55.7917 31.0254C55.7892 31.0579 55.7881 31.0908 55.7881 31.1239C55.7881 31.157 55.7892 31.1899 55.7917 31.2224V59.8294H49.3227C47.1656 59.8294 45.1243 60.5745 43.4937 61.873V32.7154C44.6657 30.8673 46.6795 29.7493 48.8413 29.7493H55.7917V31.0254ZM58.5409 32.4985H61.3639V65.4896H43.8428C45.0841 63.6773 47.1263 62.5787 49.3227 62.5787H57.1663C57.9254 62.5787 58.5409 61.9631 58.5409 61.2041V32.4985ZM34.9154 62.5787C37.1118 62.5787 39.1538 63.6773 40.3952 65.4896H22.8743V32.4985H25.6973V61.2041C25.6973 61.9631 26.3127 62.5787 27.0719 62.5787H34.9154ZM28.4465 59.8294V31.2224C28.4488 31.1899 28.45 31.157 28.45 31.1239C28.45 31.0908 28.4488 31.0579 28.4465 31.0254V29.7493H35.397C37.5586 29.7493 39.5725 30.8673 40.7444 32.7154V61.873C39.1138 60.5745 37.0726 59.8294 34.9154 59.8294H28.4465Z" fill="white"/>
<path d="M10.3662 27.1765L9.71915 28.4884L8.2715 28.6995C8.0119 28.7371 7.90785 29.0572 8.09612 29.2405L9.14346 30.2611L8.89575 31.7028C8.85116 31.9634 9.12563 32.1586 9.35551 32.0367L10.6506 31.356L11.9456 32.0367C12.1755 32.1576 12.45 31.9634 12.4054 31.7028L12.1577 30.2611L13.205 29.2405C13.3933 29.0572 13.2892 28.7371 13.0296 28.6995L11.582 28.4884L10.9349 27.1765C10.819 26.9427 10.4831 26.9397 10.3662 27.1765Z" fill="white"/>
<path d="M73.3662 48.1765L72.7192 49.4884L71.2715 49.6995C71.0119 49.7371 70.9079 50.0572 71.0961 50.2405L72.1435 51.2611L71.8957 52.7028C71.8512 52.9634 72.1256 53.1586 72.3555 53.0367L73.6506 52.356L74.9456 53.0367C75.1755 53.1576 75.45 52.9634 75.4054 52.7028L75.1577 51.2611L76.205 50.2405C76.3933 50.0572 76.2892 49.7371 76.0296 49.6995L74.582 49.4884L73.9349 48.1765C73.819 47.9427 73.4831 47.9397 73.3662 48.1765Z" fill="white"/>
<path d="M52.3662 77.1765L51.7192 78.4884L50.2715 78.6995C50.0119 78.7371 49.9079 79.0572 50.0961 79.2405L51.1435 80.2611L50.8957 81.7028C50.8512 81.9634 51.1256 82.1586 51.3555 82.0367L52.6506 81.356L53.9456 82.0367C54.1755 82.1576 54.45 81.9634 54.4054 81.7028L54.1577 80.2611L55.205 79.2405C55.3933 79.0572 55.2892 78.7371 55.0296 78.6995L53.582 78.4884L52.9349 77.1765C52.819 76.9427 52.4831 76.9397 52.3662 77.1765Z" fill="white"/>
<path d="M35.3662 9.1765L34.7192 10.4884L33.2715 10.6995C33.0119 10.7371 32.9079 11.0572 33.0961 11.2405L34.1435 12.2611L33.8957 13.7028C33.8512 13.9634 34.1256 14.1586 34.3555 14.0367L35.6506 13.356L36.9456 14.0367C37.1755 14.1576 37.45 13.9634 37.4054 13.7028L37.1577 12.2611L38.205 11.2405C38.3933 11.0572 38.2892 10.7371 38.0296 10.6995L36.582 10.4884L35.9349 9.1765C35.819 8.94266 35.4831 8.93968 35.3662 9.1765Z" fill="white"/>
<path d="M10.3662 75.1765L9.71915 76.4884L8.2715 76.6995C8.0119 76.7371 7.90785 77.0572 8.09612 77.2405L9.14346 78.2611L8.89575 79.7028C8.85116 79.9634 9.12563 80.1586 9.35551 80.0367L10.6506 79.356L11.9456 80.0367C12.1755 80.1576 12.45 79.9634 12.4054 79.7028L12.1577 78.2611L13.205 77.2405C13.3933 77.0572 13.2892 76.7371 13.0296 76.6995L11.582 76.4884L10.9349 75.1765C10.819 74.9427 10.4831 74.9397 10.3662 75.1765Z" fill="white"/>
<path d="M75.6926 24C82.1502 24 87.3851 18.8513 87.3851 12.5C87.3851 6.14873 82.1502 1 75.6926 1C69.2349 1 64 6.14873 64 12.5C64 18.8513 69.2349 24 75.6926 24Z" stroke="white" stroke-width="1.97889"/>
<path d="M70.5862 2.22705C72.1682 2.56105 73.3542 3.94441 73.3542 5.60021C73.3542 7.50559 71.7838 9.05021 69.8465 9.05021C68.0355 9.05021 66.5451 7.7005 66.3584 5.96809" stroke="white" stroke-width="1.97889"/>
<path d="M87.3851 13.7081C86.6423 12.9625 85.6071 12.5 84.462 12.5C82.2018 12.5 80.3696 14.302 80.3696 16.525C80.3696 18.5527 81.8942 20.2302 83.8774 20.5093" stroke="white" stroke-width="1.97889"/>
<path d="M78.6157 8.48641L78.6274 8.47363" stroke="white" stroke-width="1.97889" stroke-linecap="round" stroke-linejoin="round"/>
<path d="M73.3542 18.2499C74.6457 18.2499 75.6927 17.2202 75.6927 15.9499C75.6927 14.6796 74.6457 13.6499 73.3542 13.6499C72.0626 13.6499 71.0156 14.6796 71.0156 15.9499C71.0156 17.2202 72.0626 18.2499 73.3542 18.2499Z" stroke="white" stroke-width="1.97889" stroke-linecap="round" stroke-linejoin="round"/>
</g>
<defs>
<clipPath id="clip0_93_28">
<rect width="89" height="90" fill="white"/>
</clipPath>
</defs>
</svg>
